<?xml version="1.0" standalone="no"?>
<!DOCTYPE svg PUBLIC "-//W3C//DTD SVG 20010904//EN"
 "http://www.w3.org/TR/2001/REC-SVG-20010904/DTD/svg10.dtd">
<svg version="1.0" xmlns="http://www.w3.org/2000/svg"
 width="700.000000pt" height="700.000000pt" viewBox="0 0 700.000000 700.000000"
 preserveAspectRatio="xMidYMid meet">
<metadata>
Created by potrace 1.14, written by Peter Selinger 2001-2017
</metadata>
<g transform="translate(0.000000,700.000000) scale(0.100000,-0.100000)"
fill="#000000" stroke="none">
<path d="M1949 5652 c-103 -42 -155 -165 -111 -266 25 -56 52 -83 109 -108
103 -46 218 2 264 110 69 160 -99 330 -262 264z"/>
<path d="M5685 5210 c-207 -35 -529 -132 -710 -214 -16 -8 -86 -37 -155 -66
-69 -29 -147 -63 -175 -75 -27 -12 -136 -59 -241 -104 l-190 -82 -65 35 c-185
100 -424 159 -644 160 -52 0 -216 -14 -224 -19 -4 -2 -26 -6 -49 -10 -24 -3
-71 -15 -105 -26 -34 -11 -71 -22 -82 -25 -11 -2 -74 -30 -140 -63 -464 -228
-755 -680 -770 -1199 -2 -46 -4 -84 -6 -86 -19 -12 -412 -323 -454 -357 -11
-9 -51 -43 -90 -75 -268 -221 -516 -477 -630 -648 -63 -95 -113 -213 -121
-286 -17 -154 81 -271 254 -304 66 -13 204 -13 278 -2 19 4 51 8 71 11 269 39
760 210 1276 445 l135 61 59 -29 c86 -44 255 -99 363 -118 149 -26 386 -23
520 7 25 6 52 12 60 14 38 8 191 65 245 91 86 40 211 119 275 172 317 265 485
597 512 1010 3 36 10 44 120 122 132 93 258 188 397 300 79 63 151 121 161
128 16 12 25 10 62 -11 127 -74 294 -70 420 9 l38 24 67 -18 c113 -31 188 -19
212 35 25 54 1 111 -80 191 -50 50 -53 55 -51 100 3 58 -20 150 -54 212 l-26
47 35 49 c204 287 152 534 -124 598 -81 19 -248 17 -374 -4z m395 -103 c161
-59 173 -207 35 -422 -20 -32 -40 -54 -43 -49 -12 18 -76 52 -127 68 -107 34
-198 26 -303 -25 l-62 -30 -66 21 c-126 42 -201 46 -239 10 -65 -61 -29 -154
105 -264 33 -27 35 -31 37 -101 2 -77 28 -166 62 -214 12 -16 21 -34 21 -40 0
-16 -353 -294 -552 -435 -56 -39 -68 -45 -69 -29 -10 213 -111 491 -251 687
-65 92 -204 238 -275 288 -23 17 -42 33 -40 34 5 5 660 285 757 324 166 66
410 143 516 163 10 2 30 7 44 10 35 9 84 16 165 23 39 4 71 8 73 9 11 9 167
-11 212 -28z m-645 -512 c33 -9 61 -18 63 -20 6 -6 -43 -85 -53 -85 -11 0
-105 100 -105 112 0 12 29 10 95 -7z m803 -482 c17 -21 32 -41 32 -45 0 -11
-38 -10 -82 2 l-37 11 21 34 c11 19 23 35 26 35 4 0 22 -17 40 -37z m-4083
-858 c23 -178 122 -412 248 -585 55 -75 230 -249 294 -292 l52 -34 -47 -23
c-180 -88 -703 -301 -797 -325 -5 -2 -17 -6 -25 -9 -8 -3 -60 -19 -115 -36
-459 -136 -747 -133 -820 9 -8 16 -15 52 -15 79 0 51 32 153 56 182 8 8 14 20
14 26 0 25 145 209 255 323 108 112 326 313 379 350 12 8 26 19 31 26 9 10
337 272 435 347 19 14 38 23 41 19 4 -4 10 -29 14 -57z"/>
<path d="M787 3335 c-91 -25 -178 -98 -217 -181 -24 -52 -39 -124 -34 -163 2
-14 5 -40 8 -58 8 -59 67 -153 121 -193 77 -58 127 -75 220 -74 64 1 91 6 135
27 243 113 272 438 53 594 -26 18 -63 38 -82 43 -60 18 -153 20 -204 5z"/>
<path d="M5539 2639 c-121 -18 -194 -105 -194 -229 1 -144 111 -242 253 -227
120 13 205 110 203 233 -1 138 -126 244 -262 223z"/>
</g>
</svg>
